# xmcd
#
# Track frame offsets: 
#        150
#        14025
#        28450
#        47253
#        71328
#        85612
#        104019
#        120960
#        142277
#        162988
#        194626
#        223830
#        244884
#
# Disc length: 3531 seconds
#
# Revision: 1
# Processed by: cddbd v1.5.2PL0 Copyright (c) Steve Scherf et al.
# Submitted via: ExactAudioCopy v1.2
#
DISCID=c20dc90d
DTITLE=Jason Isbell and The 400 Unit - Live From the Ryman
DYEAR=2018
DGENRE=Country
TTITLE0=Hope The High Road
TTITLE1=24 Frames
TTITLE2=White Man's World
TTITLE3=Flagship
TTITLE4=Cumberland Gap
TTITLE5=Something More Than Free
TTITLE6=The Life You Chose
TTITLE7=Elephant
TTITLE8=Flying Over Water
TTITLE9=Last Of My Kind
TTITLE10=Cover Me Up
TTITLE11=Super 8
TTITLE12=If We Were Vampires
EXTD=
EXTT0=
EXTT1=
EXTT2=
EXTT3=
EXTT4=
EXTT5=
EXTT6=
EXTT7=
EXTT8=
EXTT9=
EXTT10=
EXTT11=
EXTT12=
PLAYORDER=
